<svg width="38" height="38" viewBox="0 0 38 38" fill="none" xmlns="http://www.w3.org/2000/svg">
<path fill-rule="evenodd" clip-rule="evenodd" d="M25.3333 16.4667C25.3333 17.6311 25.104 18.7841 24.6584 19.8598C24.2128 20.9356 23.5597 21.9131 22.7363 22.7364C21.913 23.5597 20.9355 24.2129 19.8598 24.6585C18.784 25.104 17.631 25.3334 16.4667 25.3334C15.3023 25.3334 14.1493 25.104 13.0735 24.6585C11.9978 24.2129 11.0203 23.5597 10.197 22.7364C9.37363 21.9131 8.72052 20.9356 8.27492 19.8598C7.82933 18.7841 7.59999 17.6311 7.59999 16.4667C7.59999 14.1151 8.53415 11.8599 10.197 10.197C11.8598 8.53422 14.1151 7.60005 16.4667 7.60005C18.8182 7.60005 21.0735 8.53422 22.7363 10.197C24.3992 11.8599 25.3333 14.1151 25.3333 16.4667ZM23.5828 25.3739C21.3064 27.1926 18.42 28.0705 15.5165 27.8276C12.613 27.5846 9.91268 26.239 7.97021 24.0673C6.02774 21.8956 4.99054 19.0626 5.07162 16.15C5.1527 13.2375 6.34591 10.4665 8.40619 8.40625C10.4665 6.34597 13.2374 5.15276 16.15 5.07168C19.0625 4.9906 21.8956 6.0278 24.0673 7.97027C26.239 9.91274 27.5845 12.613 27.8275 15.5166C28.0705 18.4201 27.1925 21.3064 25.3739 23.5829L32.5635 30.7699C32.6812 30.8877 32.7746 31.0275 32.8384 31.1814C32.9021 31.3352 32.9349 31.5002 32.9349 31.6667C32.9349 31.8333 32.9021 31.9982 32.8384 32.1521C32.7746 32.3059 32.6812 32.4457 32.5635 32.5635C32.4457 32.6813 32.3059 32.7747 32.152 32.8384C31.9981 32.9022 31.8332 32.935 31.6667 32.935C31.5001 32.935 31.3352 32.9022 31.1813 32.8384C31.0274 32.7747 30.8876 32.6813 30.7699 32.5635L23.5828 25.3739Z" fill="white"/>
</svg>
